<mxfile host="Electron" agent="Mozilla/5.0 (Windows NT 10.0; Win64; x64) AppleWebKit/537.36 (KHTML, like Gecko) draw.io/26.0.4 Chrome/128.0.6613.186 Electron/32.2.5 Safari/537.36" version="26.0.4">
  <diagram name="Page-1" id="2YBvvXClWsGukQMizWep">
    <mxGraphModel dx="1020" dy="496" grid="1" gridSize="10" guides="1" tooltips="1" connect="1" arrows="1" fold="1" page="1" pageScale="1" pageWidth="850" pageHeight="1100" math="0" shadow="0">
      <root>
        <mxCell id="0" />
        <mxCell id="1" parent="0" />
        <mxCell id="TZMgocirONaH8C-tbNTi-1" value="" style="shape=umlLifeline;perimeter=lifelinePerimeter;whiteSpace=wrap;html=1;container=1;dropTarget=0;collapsible=0;recursiveResize=0;outlineConnect=0;portConstraint=eastwest;newEdgeStyle={&quot;curved&quot;:0,&quot;rounded&quot;:0};participant=umlActor;" parent="1" vertex="1">
          <mxGeometry x="40" y="40" width="20" height="300" as="geometry" />
        </mxCell>
        <mxCell id="TZMgocirONaH8C-tbNTi-2" value="" style="html=1;points=[[0,0,0,0,5],[0,1,0,0,-5],[1,0,0,0,5],[1,1,0,0,-5]];perimeter=orthogonalPerimeter;outlineConnect=0;targetShapes=umlLifeline;portConstraint=eastwest;newEdgeStyle={&quot;curved&quot;:0,&quot;rounded&quot;:0};" parent="TZMgocirONaH8C-tbNTi-1" vertex="1">
          <mxGeometry x="5" y="60" width="10" height="230" as="geometry" />
        </mxCell>
        <mxCell id="TZMgocirONaH8C-tbNTi-3" value="Utente Recensore" style="text;html=1;align=center;verticalAlign=middle;whiteSpace=wrap;rounded=0;" parent="1" vertex="1">
          <mxGeometry x="20" y="10" width="60" height="30" as="geometry" />
        </mxCell>
        <mxCell id="TZMgocirONaH8C-tbNTi-4" value=":Film_Boundary" style="shape=umlLifeline;perimeter=lifelinePerimeter;whiteSpace=wrap;html=1;container=1;dropTarget=0;collapsible=0;recursiveResize=0;outlineConnect=0;portConstraint=eastwest;newEdgeStyle={&quot;curved&quot;:0,&quot;rounded&quot;:0};" parent="1" vertex="1">
          <mxGeometry x="210" y="40" width="100" height="440" as="geometry" />
        </mxCell>
        <mxCell id="TZMgocirONaH8C-tbNTi-5" value="" style="html=1;points=[[0,0,0,0,5],[0,1,0,0,-5],[1,0,0,0,5],[1,1,0,0,-5]];perimeter=orthogonalPerimeter;outlineConnect=0;targetShapes=umlLifeline;portConstraint=eastwest;newEdgeStyle={&quot;curved&quot;:0,&quot;rounded&quot;:0};" parent="TZMgocirONaH8C-tbNTi-4" vertex="1">
          <mxGeometry x="45" y="60" width="10" height="340" as="geometry" />
        </mxCell>
        <mxCell id="TZMgocirONaH8C-tbNTi-7" value="Aggiorna colore pulsante" style="html=1;align=left;spacingLeft=2;endArrow=block;rounded=0;edgeStyle=orthogonalEdgeStyle;curved=0;rounded=0;" parent="TZMgocirONaH8C-tbNTi-4" source="TZMgocirONaH8C-tbNTi-5" target="TZMgocirONaH8C-tbNTi-5" edge="1">
          <mxGeometry relative="1" as="geometry">
            <mxPoint x="60" y="90" as="sourcePoint" />
            <Array as="points">
              <mxPoint x="90" y="90" />
              <mxPoint x="90" y="120" />
            </Array>
            <mxPoint x="65" y="130.0000000000001" as="targetPoint" />
          </mxGeometry>
        </mxCell>
        <mxCell id="TZMgocirONaH8C-tbNTi-9" value="clickLike/dislike()" style="html=1;verticalAlign=bottom;endArrow=block;curved=0;rounded=0;" parent="1" target="TZMgocirONaH8C-tbNTi-5" edge="1">
          <mxGeometry width="80" relative="1" as="geometry">
            <mxPoint x="55" y="120" as="sourcePoint" />
            <mxPoint x="185" y="120" as="targetPoint" />
          </mxGeometry>
        </mxCell>
        <mxCell id="TZMgocirONaH8C-tbNTi-10" value="Catalogo_Recensioni" style="shape=umlLifeline;perimeter=lifelinePerimeter;whiteSpace=wrap;html=1;container=1;dropTarget=0;collapsible=0;recursiveResize=0;outlineConnect=0;portConstraint=eastwest;newEdgeStyle={&quot;curved&quot;:0,&quot;rounded&quot;:0};" parent="1" vertex="1">
          <mxGeometry x="780" y="40" width="160" height="440" as="geometry" />
        </mxCell>
        <mxCell id="TZMgocirONaH8C-tbNTi-24" value="" style="html=1;points=[[0,0,0,0,5],[0,1,0,0,-5],[1,0,0,0,5],[1,1,0,0,-5]];perimeter=orthogonalPerimeter;outlineConnect=0;targetShapes=umlLifeline;portConstraint=eastwest;newEdgeStyle={&quot;curved&quot;:0,&quot;rounded&quot;:0};" parent="TZMgocirONaH8C-tbNTi-10" vertex="1">
          <mxGeometry x="75" y="160" width="10" height="80" as="geometry" />
        </mxCell>
        <mxCell id="TZMgocirONaH8C-tbNTi-12" value=":Film_Control" style="shape=umlLifeline;perimeter=lifelinePerimeter;whiteSpace=wrap;html=1;container=1;dropTarget=0;collapsible=0;recursiveResize=0;outlineConnect=0;portConstraint=eastwest;newEdgeStyle={&quot;curved&quot;:0,&quot;rounded&quot;:0};" parent="1" vertex="1">
          <mxGeometry x="510" y="40" width="100" height="400" as="geometry" />
        </mxCell>
        <mxCell id="TZMgocirONaH8C-tbNTi-13" value="" style="html=1;points=[[0,0,0,0,5],[0,1,0,0,-5],[1,0,0,0,5],[1,1,0,0,-5]];perimeter=orthogonalPerimeter;outlineConnect=0;targetShapes=umlLifeline;portConstraint=eastwest;newEdgeStyle={&quot;curved&quot;:0,&quot;rounded&quot;:0};" parent="TZMgocirONaH8C-tbNTi-12" vertex="1">
          <mxGeometry x="42.5" y="130" width="15" height="270" as="geometry" />
        </mxCell>
        <mxCell id="TZMgocirONaH8C-tbNTi-17" value="newValutazione(valutazione, recensione, utente)" style="html=1;verticalAlign=bottom;endArrow=block;curved=0;rounded=0;" parent="1" source="TZMgocirONaH8C-tbNTi-5" target="TZMgocirONaH8C-tbNTi-13" edge="1">
          <mxGeometry x="0.0783" width="80" relative="1" as="geometry">
            <mxPoint x="270" y="189.5" as="sourcePoint" />
            <mxPoint x="557.5" y="189.5" as="targetPoint" />
            <Array as="points">
              <mxPoint x="495" y="189.5" />
            </Array>
            <mxPoint y="1" as="offset" />
          </mxGeometry>
        </mxCell>
        <mxCell id="TZMgocirONaH8C-tbNTi-25" value="ValutaRecensione(valutazione, recensione, utente)" style="html=1;verticalAlign=bottom;endArrow=block;curved=0;rounded=0;" parent="1" target="TZMgocirONaH8C-tbNTi-24" edge="1">
          <mxGeometry width="80" relative="1" as="geometry">
            <mxPoint x="567.5" y="210" as="sourcePoint" />
            <mxPoint x="725" y="210" as="targetPoint" />
          </mxGeometry>
        </mxCell>
      </root>
    </mxGraphModel>
  </diagram>
</mxfile>
